<svg width="200" height="200" viewBox="0 0 1024 1024" version="1.1" xmlns="http://www.w3.org/2000/svg"><path d="M836.782549 724.109885" class=""></path><path d="M814.038546 632.006188" class=""></path><path d="M903.422296 1008.811066 121.620453 1008.811066c-58.783825 0-106.609063-47.825238-106.609063-106.60804L15.01139 120.398114c0-58.782801 47.825238-106.609063 106.609063-106.609063l605.730755 0 137.28062 173.197644c12.19167 15.381315 9.604752 37.732369-5.773494 49.92404-15.379269 12.19167-37.734416 9.607822-49.92404-5.776563l-115.940592-146.272411L121.620453 84.86176c-19.594267 0-35.536354 15.941064-35.536354 35.535331l0 781.804912c0 19.59529 15.942087 35.535331 35.536354 35.535331l781.801842 0c19.59529 0 35.538401-15.939017 35.538401-35.535331L938.960697 382.809639c0-19.62599 15.910365-35.537378 35.536354-35.537378 19.627013 0 35.538401 15.911388 35.538401 35.537378l0 519.394411C1010.033405 960.987874 962.207144 1008.811066 903.422296 1008.811066L903.422296 1008.811066z" class=""></path><path d="M228.649072 298.247708 726.160079 298.247708 726.160079 369.320417 228.649072 369.320417 228.649072 298.247708Z" class=""></path><path d="M228.649072 511.301082 583.34542 511.301082 583.34542 582.375837 228.649072 582.375837 228.649072 511.301082Z" class=""></path><path d="M228.649072 724.109885 798.199813 724.109885 798.199813 795.182594 228.649072 795.182594 228.649072 724.109885Z" class=""></path></svg>